<svg width="360" height="86" viewBox="0 0 360 86" fill="none" xmlns="http://www.w3.org/2000/svg">
<rect width="360" height="86" fill="white"/>
<rect x="12" y="42" width="64" height="34" rx="17" fill="white"/>
<path d="M27.8089 54.6C28.5689 54.6 29.2289 54.728 29.7889 54.984C30.3489 55.232 30.7809 55.592 31.0849 56.064C31.3889 56.528 31.5409 57.076 31.5409 57.708C31.5409 58.34 31.3889 58.888 31.0849 59.352C30.7809 59.816 30.3489 60.176 29.7889 60.432C29.2289 60.68 28.5689 60.804 27.8089 60.804H26.3449V63H23.9689V54.6H27.8089ZM27.6649 58.932C28.1529 58.932 28.5209 58.828 28.7689 58.62C29.0169 58.404 29.1409 58.1 29.1409 57.708C29.1409 57.316 29.0169 57.012 28.7689 56.796C28.5209 56.58 28.1529 56.472 27.6649 56.472H26.3449V58.932H27.6649ZM39.5486 56.496V63H37.3766V62.304C37.1366 62.568 36.8486 62.768 36.5126 62.904C36.1766 63.04 35.8206 63.108 35.4446 63.108C34.6046 63.108 33.9326 62.86 33.4286 62.364C32.9326 61.868 32.6846 61.124 32.6846 60.132V56.496H34.9646V59.76C34.9646 60.248 35.0566 60.604 35.2406 60.828C35.4246 61.052 35.6926 61.164 36.0446 61.164C36.4046 61.164 36.6966 61.04 36.9206 60.792C37.1526 60.536 37.2686 60.148 37.2686 59.628V56.496H39.5486ZM41.0172 54.096H43.2972V63H41.0172V54.096ZM47.1429 63.108C46.5989 63.108 46.0629 63.048 45.5349 62.928C45.0069 62.8 44.5829 62.636 44.2629 62.436L44.9469 60.876C45.2429 61.06 45.5949 61.208 46.0029 61.32C46.4109 61.424 46.8149 61.476 47.2149 61.476C47.5829 61.476 47.8429 61.44 47.9949 61.368C48.1549 61.288 48.2349 61.176 48.2349 61.032C48.2349 60.888 48.1389 60.788 47.9469 60.732C47.7629 60.668 47.4669 60.608 47.0589 60.552C46.5389 60.488 46.0949 60.404 45.7269 60.3C45.3669 60.196 45.0549 60.004 44.7909 59.724C44.5269 59.444 44.3949 59.052 44.3949 58.548C44.3949 58.132 44.5189 57.764 44.7669 57.444C45.0149 57.116 45.3749 56.86 45.8469 56.676C46.3269 56.484 46.8989 56.388 47.5629 56.388C48.0349 56.388 48.5029 56.436 48.9669 56.532C49.4309 56.628 49.8189 56.764 50.1309 56.94L49.4469 58.488C48.8709 58.168 48.2469 58.008 47.5749 58.008C47.2149 58.008 46.9509 58.052 46.7829 58.14C46.6149 58.22 46.5309 58.328 46.5309 58.464C46.5309 58.616 46.6229 58.724 46.8069 58.788C46.9909 58.844 47.2949 58.904 47.7189 58.968C48.2549 59.048 48.6989 59.14 49.0509 59.244C49.4029 59.348 49.7069 59.54 49.9629 59.82C50.2269 60.092 50.3589 60.476 50.3589 60.972C50.3589 61.38 50.2349 61.748 49.9869 62.076C49.7389 62.396 49.3709 62.648 48.8829 62.832C48.4029 63.016 47.8229 63.108 47.1429 63.108ZM57.9894 59.76C57.9894 59.776 57.9774 59.964 57.9534 60.324H53.2254C53.3214 60.66 53.5054 60.92 53.7774 61.104C54.0574 61.28 54.4054 61.368 54.8214 61.368C55.1334 61.368 55.4014 61.324 55.6254 61.236C55.8574 61.148 56.0894 61.004 56.3214 60.804L57.5214 62.052C56.8894 62.756 55.9654 63.108 54.7494 63.108C53.9894 63.108 53.3214 62.964 52.7454 62.676C52.1694 62.388 51.7214 61.988 51.4014 61.476C51.0894 60.964 50.9334 60.384 50.9334 59.736C50.9334 59.096 51.0854 58.524 51.3894 58.02C51.7014 57.508 52.1294 57.108 52.6734 56.82C53.2174 56.532 53.8294 56.388 54.5094 56.388C55.1574 56.388 55.7454 56.524 56.2734 56.796C56.8014 57.06 57.2174 57.448 57.5214 57.96C57.8334 58.464 57.9894 59.064 57.9894 59.76ZM54.5214 58.008C54.1694 58.008 53.8734 58.108 53.6334 58.308C53.4014 58.508 53.2534 58.78 53.1894 59.124H55.8534C55.7894 58.78 55.6374 58.508 55.3974 58.308C55.1654 58.108 54.8734 58.008 54.5214 58.008ZM61.4046 63.108C60.8606 63.108 60.3246 63.048 59.7966 62.928C59.2686 62.8 58.8446 62.636 58.5246 62.436L59.2086 60.876C59.5046 61.06 59.8566 61.208 60.2646 61.32C60.6726 61.424 61.0766 61.476 61.4766 61.476C61.8446 61.476 62.1046 61.44 62.2566 61.368C62.4166 61.288 62.4966 61.176 62.4966 61.032C62.4966 60.888 62.4006 60.788 62.2086 60.732C62.0246 60.668 61.7286 60.608 61.3206 60.552C60.8006 60.488 60.3566 60.404 59.9886 60.3C59.6286 60.196 59.3166 60.004 59.0526 59.724C58.7886 59.444 58.6566 59.052 58.6566 58.548C58.6566 58.132 58.7806 57.764 59.0286 57.444C59.2766 57.116 59.6366 56.86 60.1086 56.676C60.5886 56.484 61.1606 56.388 61.8246 56.388C62.2966 56.388 62.7646 56.436 63.2286 56.532C63.6926 56.628 64.0806 56.764 64.3926 56.94L63.7086 58.488C63.1326 58.168 62.5086 58.008 61.8366 58.008C61.4766 58.008 61.2126 58.052 61.0446 58.14C60.8766 58.22 60.7926 58.328 60.7926 58.464C60.7926 58.616 60.8846 58.724 61.0686 58.788C61.2526 58.844 61.5566 58.904 61.9806 58.968C62.5166 59.048 62.9606 59.14 63.3126 59.244C63.6646 59.348 63.9686 59.54 64.2246 59.82C64.4886 60.092 64.6206 60.476 64.6206 60.972C64.6206 61.38 64.4966 61.748 64.2486 62.076C64.0006 62.396 63.6326 62.648 63.1446 62.832C62.6646 63.016 62.0846 63.108 61.4046 63.108Z" fill="#18191F"/>
<rect x="12" y="42" width="64" height="34" rx="17" stroke="#18191F" stroke-width="2"/>
<rect x="84" y="42" width="108" height="34" rx="17" fill="white"/>
<path d="M100.249 63.168C99.3687 63.168 98.5767 62.984 97.8727 62.616C97.1767 62.24 96.6287 61.72 96.2287 61.056C95.8287 60.392 95.6287 59.64 95.6287 58.8C95.6287 57.96 95.8287 57.208 96.2287 56.544C96.6287 55.88 97.1767 55.364 97.8727 54.996C98.5767 54.62 99.3687 54.432 100.249 54.432C101.017 54.432 101.709 54.568 102.325 54.84C102.941 55.112 103.453 55.504 103.861 56.016L102.349 57.384C101.805 56.728 101.145 56.4 100.369 56.4C99.9127 56.4 99.5047 56.5 99.1447 56.7C98.7927 56.9 98.5167 57.184 98.3167 57.552C98.1247 57.912 98.0287 58.328 98.0287 58.8C98.0287 59.272 98.1247 59.692 98.3167 60.06C98.5167 60.42 98.7927 60.7 99.1447 60.9C99.5047 61.1 99.9127 61.2 100.369 61.2C101.145 61.2 101.805 60.872 102.349 60.216L103.861 61.584C103.453 62.096 102.941 62.488 102.325 62.76C101.709 63.032 101.017 63.168 100.249 63.168ZM107.877 63.108C107.181 63.108 106.553 62.964 105.993 62.676C105.433 62.388 104.993 61.988 104.673 61.476C104.361 60.964 104.205 60.384 104.205 59.736C104.205 59.096 104.361 58.52 104.673 58.008C104.993 57.496 105.429 57.1 105.981 56.82C106.541 56.532 107.173 56.388 107.877 56.388C108.581 56.388 109.213 56.532 109.773 56.82C110.333 57.1 110.769 57.496 111.081 58.008C111.393 58.512 111.549 59.088 111.549 59.736C111.549 60.384 111.393 60.964 111.081 61.476C110.769 61.988 110.333 62.388 109.773 62.676C109.213 62.964 108.581 63.108 107.877 63.108ZM107.877 61.296C108.277 61.296 108.605 61.16 108.861 60.888C109.117 60.608 109.245 60.224 109.245 59.736C109.245 59.256 109.117 58.88 108.861 58.608C108.605 58.336 108.277 58.2 107.877 58.2C107.477 58.2 107.149 58.336 106.893 58.608C106.637 58.88 106.509 59.256 106.509 59.736C106.509 60.224 106.637 60.608 106.893 60.888C107.149 61.16 107.477 61.296 107.877 61.296ZM116.841 56.388C117.649 56.388 118.297 56.628 118.785 57.108C119.281 57.588 119.529 58.312 119.529 59.28V63H117.249V59.652C117.249 58.764 116.893 58.32 116.181 58.32C115.789 58.32 115.473 58.448 115.233 58.704C115.001 58.96 114.885 59.344 114.885 59.856V63H112.605V56.496H114.777V57.204C115.033 56.94 115.337 56.74 115.689 56.604C116.041 56.46 116.425 56.388 116.841 56.388ZM127.966 54.096V63H125.794V62.352C125.37 62.856 124.734 63.108 123.886 63.108C123.294 63.108 122.754 62.972 122.266 62.7C121.778 62.42 121.39 62.024 121.102 61.512C120.822 61 120.682 60.408 120.682 59.736C120.682 59.064 120.822 58.476 121.102 57.972C121.39 57.46 121.778 57.068 122.266 56.796C122.754 56.524 123.294 56.388 123.886 56.388C124.662 56.388 125.262 56.612 125.686 57.06V54.096H127.966ZM124.366 61.296C124.758 61.296 125.082 61.16 125.338 60.888C125.594 60.608 125.722 60.224 125.722 59.736C125.722 59.256 125.594 58.88 125.338 58.608C125.09 58.336 124.766 58.2 124.366 58.2C123.966 58.2 123.638 58.336 123.382 58.608C123.126 58.88 122.998 59.256 122.998 59.736C122.998 60.224 123.126 60.608 123.382 60.888C123.638 61.16 123.966 61.296 124.366 61.296ZM129.433 56.496H131.713V63H129.433V56.496ZM130.573 55.776C130.157 55.776 129.821 55.66 129.565 55.428C129.309 55.196 129.181 54.908 129.181 54.564C129.181 54.22 129.309 53.932 129.565 53.7C129.821 53.468 130.157 53.352 130.573 53.352C130.989 53.352 131.325 53.464 131.581 53.688C131.837 53.904 131.965 54.184 131.965 54.528C131.965 54.888 131.837 55.188 131.581 55.428C131.325 55.66 130.989 55.776 130.573 55.776ZM139.843 59.76C139.843 59.776 139.831 59.964 139.807 60.324H135.079C135.175 60.66 135.359 60.92 135.631 61.104C135.911 61.28 136.259 61.368 136.675 61.368C136.987 61.368 137.255 61.324 137.479 61.236C137.711 61.148 137.943 61.004 138.175 60.804L139.375 62.052C138.743 62.756 137.819 63.108 136.603 63.108C135.843 63.108 135.175 62.964 134.599 62.676C134.023 62.388 133.575 61.988 133.255 61.476C132.943 60.964 132.787 60.384 132.787 59.736C132.787 59.096 132.939 58.524 133.243 58.02C133.555 57.508 133.983 57.108 134.527 56.82C135.071 56.532 135.683 56.388 136.363 56.388C137.011 56.388 137.599 56.524 138.127 56.796C138.655 57.06 139.071 57.448 139.375 57.96C139.687 58.464 139.843 59.064 139.843 59.76ZM136.375 58.008C136.023 58.008 135.727 58.108 135.487 58.308C135.255 58.508 135.107 58.78 135.043 59.124H137.707C137.643 58.78 137.491 58.508 137.251 58.308C137.019 58.108 136.727 58.008 136.375 58.008ZM149.366 56.388C150.166 56.388 150.802 56.628 151.274 57.108C151.754 57.588 151.994 58.312 151.994 59.28V63H149.714V59.652C149.714 59.196 149.626 58.86 149.45 58.644C149.282 58.428 149.042 58.32 148.73 58.32C148.386 58.32 148.11 58.44 147.902 58.68C147.694 58.92 147.59 59.284 147.59 59.772V63H145.31V59.652C145.31 58.764 144.982 58.32 144.326 58.32C143.974 58.32 143.694 58.44 143.486 58.68C143.278 58.92 143.174 59.284 143.174 59.772V63H140.894V56.496H143.066V57.18C143.306 56.916 143.59 56.72 143.918 56.592C144.254 56.456 144.618 56.388 145.01 56.388C145.466 56.388 145.874 56.472 146.234 56.64C146.594 56.808 146.886 57.064 147.11 57.408C147.366 57.08 147.69 56.828 148.082 56.652C148.474 56.476 148.902 56.388 149.366 56.388ZM160.175 59.76C160.175 59.776 160.163 59.964 160.139 60.324H155.411C155.507 60.66 155.691 60.92 155.963 61.104C156.243 61.28 156.591 61.368 157.007 61.368C157.319 61.368 157.587 61.324 157.811 61.236C158.043 61.148 158.275 61.004 158.507 60.804L159.707 62.052C159.075 62.756 158.151 63.108 156.935 63.108C156.175 63.108 155.507 62.964 154.931 62.676C154.355 62.388 153.907 61.988 153.587 61.476C153.275 60.964 153.119 60.384 153.119 59.736C153.119 59.096 153.271 58.524 153.575 58.02C153.887 57.508 154.315 57.108 154.859 56.82C155.403 56.532 156.015 56.388 156.695 56.388C157.343 56.388 157.931 56.524 158.459 56.796C158.987 57.06 159.403 57.448 159.707 57.96C160.019 58.464 160.175 59.064 160.175 59.76ZM156.707 58.008C156.355 58.008 156.059 58.108 155.819 58.308C155.587 58.508 155.439 58.78 155.375 59.124H158.039C157.975 58.78 157.823 58.508 157.583 58.308C157.351 58.108 157.059 58.008 156.707 58.008ZM165.462 56.388C166.27 56.388 166.918 56.628 167.406 57.108C167.902 57.588 168.15 58.312 168.15 59.28V63H165.87V59.652C165.87 58.764 165.514 58.32 164.802 58.32C164.41 58.32 164.094 58.448 163.854 58.704C163.622 58.96 163.506 59.344 163.506 59.856V63H161.226V56.496H163.398V57.204C163.654 56.94 163.958 56.74 164.31 56.604C164.662 56.46 165.046 56.388 165.462 56.388ZM174.07 62.736C173.878 62.856 173.642 62.948 173.362 63.012C173.09 63.076 172.798 63.108 172.486 63.108C171.638 63.108 170.986 62.9 170.53 62.484C170.074 62.068 169.846 61.448 169.846 60.624V58.44H168.898V56.736H169.846V55.044H172.126V56.736H173.614V58.44H172.126V60.6C172.126 60.832 172.186 61.016 172.306 61.152C172.434 61.28 172.602 61.344 172.81 61.344C173.074 61.344 173.306 61.276 173.506 61.14L174.07 62.736ZM177.313 63.108C176.769 63.108 176.233 63.048 175.705 62.928C175.177 62.8 174.753 62.636 174.433 62.436L175.117 60.876C175.413 61.06 175.765 61.208 176.173 61.32C176.581 61.424 176.985 61.476 177.385 61.476C177.753 61.476 178.013 61.44 178.165 61.368C178.325 61.288 178.405 61.176 178.405 61.032C178.405 60.888 178.309 60.788 178.117 60.732C177.933 60.668 177.637 60.608 177.229 60.552C176.709 60.488 176.265 60.404 175.897 60.3C175.537 60.196 175.225 60.004 174.961 59.724C174.697 59.444 174.565 59.052 174.565 58.548C174.565 58.132 174.689 57.764 174.937 57.444C175.185 57.116 175.545 56.86 176.017 56.676C176.497 56.484 177.069 56.388 177.733 56.388C178.205 56.388 178.673 56.436 179.137 56.532C179.601 56.628 179.989 56.764 180.301 56.94L179.617 58.488C179.041 58.168 178.417 58.008 177.745 58.008C177.385 58.008 177.121 58.052 176.953 58.14C176.785 58.22 176.701 58.328 176.701 58.464C176.701 58.616 176.793 58.724 176.977 58.788C177.161 58.844 177.465 58.904 177.889 58.968C178.425 59.048 178.869 59.14 179.221 59.244C179.573 59.348 179.877 59.54 180.133 59.82C180.397 60.092 180.529 60.476 180.529 60.972C180.529 61.38 180.405 61.748 180.157 62.076C179.909 62.396 179.541 62.648 179.053 62.832C178.573 63.016 177.993 63.108 177.313 63.108Z" fill="#18191F"/>
<rect x="84" y="42" width="108" height="34" rx="17" stroke="#18191F" stroke-width="2"/>
<rect x="201" y="42" width="40" height="34" rx="17" fill="white"/>
<path d="M217.24 63.168C216.352 63.168 215.552 62.98 214.84 62.604C214.136 62.228 213.58 61.708 213.172 61.044C212.772 60.38 212.572 59.632 212.572 58.8C212.572 57.968 212.772 57.22 213.172 56.556C213.58 55.892 214.136 55.372 214.84 54.996C215.552 54.62 216.352 54.432 217.24 54.432C218.128 54.432 218.924 54.62 219.628 54.996C220.34 55.372 220.896 55.892 221.296 56.556C221.704 57.22 221.908 57.968 221.908 58.8C221.908 59.632 221.704 60.38 221.296 61.044C220.896 61.708 220.34 62.228 219.628 62.604C218.924 62.98 218.128 63.168 217.24 63.168ZM217.24 61.2C217.664 61.2 218.048 61.1 218.392 60.9C218.736 60.7 219.008 60.42 219.208 60.06C219.408 59.692 219.508 59.272 219.508 58.8C219.508 58.328 219.408 57.912 219.208 57.552C219.008 57.184 218.736 56.9 218.392 56.7C218.048 56.5 217.664 56.4 217.24 56.4C216.816 56.4 216.432 56.5 216.088 56.7C215.744 56.9 215.472 57.184 215.272 57.552C215.072 57.912 214.972 58.328 214.972 58.8C214.972 59.272 215.072 59.692 215.272 60.06C215.472 60.42 215.744 60.7 216.088 60.9C216.432 61.1 216.816 61.2 217.24 61.2ZM223.045 56.496H225.325V63H223.045V56.496ZM224.185 55.776C223.769 55.776 223.433 55.66 223.177 55.428C222.921 55.196 222.793 54.908 222.793 54.564C222.793 54.22 222.921 53.932 223.177 53.7C223.433 53.468 223.769 53.352 224.185 53.352C224.601 53.352 224.937 53.464 225.193 53.688C225.449 53.904 225.577 54.184 225.577 54.528C225.577 54.888 225.449 55.188 225.193 55.428C224.937 55.66 224.601 55.776 224.185 55.776ZM226.806 54.096H229.086V63H226.806V54.096Z" fill="#18191F"/>
<rect x="201" y="42" width="40" height="34" rx="17" stroke="#18191F" stroke-width="2"/>
<rect x="250" y="42" width="94" height="34" rx="17" fill="white"/>
<path d="M270.53 54.6L266.93 63H264.59L261.002 54.6H263.57L265.85 60.072L268.178 54.6H270.53ZM277.081 59.76C277.081 59.776 277.069 59.964 277.045 60.324H272.317C272.413 60.66 272.597 60.92 272.869 61.104C273.149 61.28 273.497 61.368 273.913 61.368C274.225 61.368 274.493 61.324 274.717 61.236C274.949 61.148 275.181 61.004 275.413 60.804L276.613 62.052C275.981 62.756 275.057 63.108 273.841 63.108C273.081 63.108 272.413 62.964 271.837 62.676C271.261 62.388 270.813 61.988 270.493 61.476C270.181 60.964 270.025 60.384 270.025 59.736C270.025 59.096 270.177 58.524 270.481 58.02C270.793 57.508 271.221 57.108 271.765 56.82C272.309 56.532 272.921 56.388 273.601 56.388C274.249 56.388 274.837 56.524 275.365 56.796C275.893 57.06 276.309 57.448 276.613 57.96C276.925 58.464 277.081 59.064 277.081 59.76ZM273.613 58.008C273.261 58.008 272.965 58.108 272.725 58.308C272.493 58.508 272.345 58.78 272.281 59.124H274.945C274.881 58.78 274.729 58.508 274.489 58.308C274.257 58.108 273.965 58.008 273.613 58.008ZM285.128 56.496V61.812C285.128 63.02 284.8 63.924 284.144 64.524C283.488 65.132 282.544 65.436 281.312 65.436C280.672 65.436 280.072 65.364 279.512 65.22C278.952 65.076 278.476 64.864 278.084 64.584L278.912 62.988C279.176 63.204 279.508 63.372 279.908 63.492C280.316 63.62 280.716 63.684 281.108 63.684C281.708 63.684 282.148 63.552 282.428 63.288C282.708 63.024 282.848 62.632 282.848 62.112V61.896C282.408 62.408 281.764 62.664 280.916 62.664C280.34 62.664 279.808 62.536 279.32 62.28C278.832 62.016 278.444 61.648 278.156 61.176C277.868 60.696 277.724 60.144 277.724 59.52C277.724 58.904 277.868 58.36 278.156 57.888C278.444 57.408 278.832 57.04 279.32 56.784C279.808 56.52 280.34 56.388 280.916 56.388C281.844 56.388 282.524 56.688 282.956 57.288V56.496H285.128ZM281.456 60.852C281.864 60.852 282.2 60.728 282.464 60.48C282.736 60.232 282.872 59.912 282.872 59.52C282.872 59.128 282.74 58.812 282.476 58.572C282.212 58.324 281.872 58.2 281.456 58.2C281.04 58.2 280.696 58.324 280.424 58.572C280.16 58.812 280.028 59.128 280.028 59.52C280.028 59.912 280.164 60.232 280.436 60.48C280.708 60.728 281.048 60.852 281.456 60.852ZM293.241 59.76C293.241 59.776 293.229 59.964 293.205 60.324H288.477C288.573 60.66 288.757 60.92 289.029 61.104C289.309 61.28 289.657 61.368 290.073 61.368C290.385 61.368 290.653 61.324 290.877 61.236C291.109 61.148 291.341 61.004 291.573 60.804L292.773 62.052C292.141 62.756 291.217 63.108 290.001 63.108C289.241 63.108 288.573 62.964 287.997 62.676C287.421 62.388 286.973 61.988 286.653 61.476C286.341 60.964 286.185 60.384 286.185 59.736C286.185 59.096 286.337 58.524 286.641 58.02C286.953 57.508 287.381 57.108 287.925 56.82C288.469 56.532 289.081 56.388 289.761 56.388C290.409 56.388 290.997 56.524 291.525 56.796C292.053 57.06 292.469 57.448 292.773 57.96C293.085 58.464 293.241 59.064 293.241 59.76ZM289.773 58.008C289.421 58.008 289.125 58.108 288.885 58.308C288.653 58.508 288.505 58.78 288.441 59.124H291.105C291.041 58.78 290.889 58.508 290.649 58.308C290.417 58.108 290.125 58.008 289.773 58.008ZM298.781 62.736C298.589 62.856 298.353 62.948 298.073 63.012C297.801 63.076 297.509 63.108 297.197 63.108C296.349 63.108 295.697 62.9 295.241 62.484C294.785 62.068 294.557 61.448 294.557 60.624V58.44H293.609V56.736H294.557V55.044H296.837V56.736H298.325V58.44H296.837V60.6C296.837 60.832 296.897 61.016 297.017 61.152C297.145 61.28 297.313 61.344 297.521 61.344C297.785 61.344 298.017 61.276 298.217 61.14L298.781 62.736ZM302.432 56.388C303.512 56.388 304.336 56.636 304.904 57.132C305.472 57.62 305.756 58.372 305.756 59.388V63H303.632V62.16C303.304 62.792 302.664 63.108 301.712 63.108C301.208 63.108 300.772 63.02 300.404 62.844C300.036 62.668 299.756 62.432 299.564 62.136C299.38 61.832 299.288 61.488 299.288 61.104C299.288 60.488 299.524 60.012 299.996 59.676C300.468 59.332 301.196 59.16 302.18 59.16H303.476C303.436 58.472 302.976 58.128 302.096 58.128C301.784 58.128 301.468 58.18 301.148 58.284C300.828 58.38 300.556 58.516 300.332 58.692L299.564 57.144C299.924 56.904 300.36 56.72 300.872 56.592C301.392 56.456 301.912 56.388 302.432 56.388ZM302.348 61.668C302.612 61.668 302.844 61.604 303.044 61.476C303.244 61.348 303.388 61.16 303.476 60.912V60.348H302.492C301.828 60.348 301.496 60.568 301.496 61.008C301.496 61.208 301.572 61.368 301.724 61.488C301.876 61.608 302.084 61.668 302.348 61.668ZM311.287 56.388C311.879 56.388 312.415 56.524 312.895 56.796C313.383 57.068 313.767 57.46 314.047 57.972C314.335 58.476 314.479 59.064 314.479 59.736C314.479 60.408 314.335 61 314.047 61.512C313.767 62.024 313.383 62.42 312.895 62.7C312.415 62.972 311.879 63.108 311.287 63.108C310.431 63.108 309.791 62.856 309.367 62.352V63H307.195V54.096H309.475V57.06C309.915 56.612 310.519 56.388 311.287 56.388ZM310.807 61.296C311.207 61.296 311.535 61.16 311.791 60.888C312.047 60.608 312.175 60.224 312.175 59.736C312.175 59.256 312.047 58.88 311.791 58.608C311.535 58.336 311.207 58.2 310.807 58.2C310.407 58.2 310.079 58.336 309.823 58.608C309.567 58.88 309.439 59.256 309.439 59.736C309.439 60.224 309.567 60.608 309.823 60.888C310.079 61.16 310.407 61.296 310.807 61.296ZM315.539 54.096H317.819V63H315.539V54.096ZM325.948 59.76C325.948 59.776 325.936 59.964 325.912 60.324H321.184C321.28 60.66 321.464 60.92 321.736 61.104C322.016 61.28 322.364 61.368 322.78 61.368C323.092 61.368 323.36 61.324 323.584 61.236C323.816 61.148 324.048 61.004 324.28 60.804L325.48 62.052C324.848 62.756 323.924 63.108 322.708 63.108C321.948 63.108 321.28 62.964 320.704 62.676C320.128 62.388 319.68 61.988 319.36 61.476C319.048 60.964 318.892 60.384 318.892 59.736C318.892 59.096 319.044 58.524 319.348 58.02C319.66 57.508 320.088 57.108 320.632 56.82C321.176 56.532 321.788 56.388 322.468 56.388C323.116 56.388 323.704 56.524 324.232 56.796C324.76 57.06 325.176 57.448 325.48 57.96C325.792 58.464 325.948 59.064 325.948 59.76ZM322.48 58.008C322.128 58.008 321.832 58.108 321.592 58.308C321.36 58.508 321.212 58.78 321.148 59.124H323.812C323.748 58.78 323.596 58.508 323.356 58.308C323.124 58.108 322.832 58.008 322.48 58.008ZM329.364 63.108C328.82 63.108 328.284 63.048 327.756 62.928C327.228 62.8 326.804 62.636 326.484 62.436L327.168 60.876C327.464 61.06 327.816 61.208 328.224 61.32C328.632 61.424 329.036 61.476 329.436 61.476C329.804 61.476 330.064 61.44 330.216 61.368C330.376 61.288 330.456 61.176 330.456 61.032C330.456 60.888 330.36 60.788 330.168 60.732C329.984 60.668 329.688 60.608 329.28 60.552C328.76 60.488 328.316 60.404 327.948 60.3C327.588 60.196 327.276 60.004 327.012 59.724C326.748 59.444 326.616 59.052 326.616 58.548C326.616 58.132 326.74 57.764 326.988 57.444C327.236 57.116 327.596 56.86 328.068 56.676C328.548 56.484 329.12 56.388 329.784 56.388C330.256 56.388 330.724 56.436 331.188 56.532C331.652 56.628 332.04 56.764 332.352 56.94L331.668 58.488C331.092 58.168 330.468 58.008 329.796 58.008C329.436 58.008 329.172 58.052 329.004 58.14C328.836 58.22 328.752 58.328 328.752 58.464C328.752 58.616 328.844 58.724 329.028 58.788C329.212 58.844 329.516 58.904 329.94 58.968C330.476 59.048 330.92 59.14 331.272 59.244C331.624 59.348 331.928 59.54 332.184 59.82C332.448 60.092 332.58 60.476 332.58 60.972C332.58 61.38 332.456 61.748 332.208 62.076C331.96 62.396 331.592 62.648 331.104 62.832C330.624 63.016 330.044 63.108 329.364 63.108Z" fill="#18191F"/>
<rect x="250" y="42" width="94" height="34" rx="17" stroke="#18191F" stroke-width="2"/>
</svg>
